<svg width="12" height="22" viewBox="0 0 12 22" fill="none" xmlns="http://www.w3.org/2000/svg">
<path d="M0.292893 20.2929C-0.0976311 20.6834 -0.0976311 21.3166 0.292893 21.7071C0.683417 22.0976 1.31658 22.0976 1.70711 21.7071L0.292893 20.2929ZM11 11L11.7071 11.7071C12.0976 11.3166 12.0976 10.6834 11.7071 10.2929L11 11ZM1.70711 0.292892C1.31658 -0.0976315 0.683418 -0.0976315 0.292893 0.292892C-0.0976309 0.683416 -0.0976309 1.31658 0.292893 1.70711L1.70711 0.292892ZM1.70711 21.7071L11.7071 11.7071L10.2929 10.2929L0.292893 20.2929L1.70711 21.7071ZM11.7071 10.2929L1.70711 0.292892L0.292893 1.70711L10.2929 11.7071L11.7071 10.2929Z" fill="#1F1F1F"/>
</svg>
